<svg width="50" height="50" viewBox="0 0 46 46" fill="none" xmlns="http://www.w3.org/2000/svg">
<g clip-path="url(#clip0_214_83)">
<rect width="46" height="46" fill="white"/>
<path d="M22.8852 44.9047C34.9192 44.9047 44.6746 35.0976 44.6746 23C44.6746 10.9023 34.9192 1.09521 22.8852 1.09521C10.8512 1.09521 1.0957 10.9023 1.0957 23C1.0957 35.0976 10.8512 44.9047 22.8852 44.9047Z" stroke="black" stroke-width="2"/>
<path d="M13.5003 11.9166V34.0833H18.2503V24.5833H27.7503V34.0833H32.5003V11.9166H27.7503V21.4166H18.2503V11.9166H13.5003ZM8.75033 27.75C8.75033 28.1699 8.91714 28.5726 9.21407 28.8695C9.51101 29.1665 9.91373 29.3333 10.3337 29.3333H11.917V16.6666H10.3337C9.91373 16.6666 9.51101 16.8334 9.21407 17.1304C8.91714 17.4273 8.75033 17.83 8.75033 18.25V21.4166H7.16699V24.5833H8.75033V27.75ZM37.2503 18.25C37.2503 17.83 37.0835 17.4273 36.7866 17.1304C36.4896 16.8334 36.0869 16.6666 35.667 16.6666H34.0837V29.3333H35.667C36.0869 29.3333 36.4896 29.1665 36.7866 28.8695C37.0835 28.5726 37.2503 28.1699 37.2503 27.75V24.5833H38.8337V21.4166H37.2503V18.25Z" fill="black"/>
</g>
<defs>
<clipPath id="clip0_214_83">
<rect width="46" height="46" fill="white"/>
</clipPath>
</defs>
</svg>
