<svg width="50" height="50" viewBox="0 0 46 46" fill="none" xmlns="http://www.w3.org/2000/svg">
<g clip-path="url(#clip0_212_90)">
<rect width="46" height="46" fill="white"/>
<path d="M22.8847 44.9047C34.9187 44.9047 44.6742 35.0976 44.6742 23C44.6742 10.9023 34.9187 1.09521 22.8847 1.09521C10.8507 1.09521 1.09521 10.9023 1.09521 23C1.09521 35.0976 10.8507 44.9047 22.8847 44.9047Z" stroke="black" stroke-width="2"/>
<path d="M32.5455 7L25.7273 13.3V28.7L32.5455 22.4V7ZM15.5 11.2C12.8409 11.2 9.97727 11.76 8 13.3V33.824C8 34.174 8.34091 34.524 8.68182 34.524C8.81818 34.524 8.88636 34.426 9.02273 34.426C10.8636 33.516 13.5227 32.9 15.5 32.9C18.1591 32.9 21.0227 33.46 23 35C24.8409 33.81 28.1818 32.9 30.5 32.9C32.75 32.9 35.0682 33.334 36.9773 34.384C37.1136 34.454 37.1818 34.426 37.3182 34.426C37.6591 34.426 38 34.076 38 33.726V13.3C37.1818 12.67 36.2955 12.25 35.2727 11.9V30.8C33.7727 30.31 32.1364 30.1 30.5 30.1C28.1818 30.1 24.8409 31.01 23 32.2V13.3C21.0227 11.76 18.1591 11.2 15.5 11.2Z" fill="black"/>
</g>
<defs>
<clipPath id="clip0_212_90">
<rect width="46" height="46" fill="white"/>
</clipPath>
</defs>
</svg>
