<svg width="50" height="50" viewBox="0 0 46 46" fill="none" xmlns="http://www.w3.org/2000/svg">
<g clip-path="url(#clip0_212_93)">
<rect width="46" height="46" fill="white"/>
<path d="M22.8847 44.9047C34.9187 44.9047 44.6742 35.0976 44.6742 23C44.6742 10.9023 34.9187 1.09521 22.8847 1.09521C10.8507 1.09521 1.09521 10.9023 1.09521 23C1.09521 35.0976 10.8507 44.9047 22.8847 44.9047Z" stroke="black" stroke-width="2"/>
<path d="M33.5 14.75H31.58L31.1 13.25C30.7888 12.3699 30.2116 11.6083 29.4484 11.0708C28.6851 10.5333 27.7735 10.2464 26.84 10.25H19.16C18.2173 10.2518 17.299 10.5496 16.5347 11.1013C15.7703 11.653 15.1985 12.4309 14.9 13.325L14.42 14.825H12.5C11.3065 14.825 10.1619 15.2991 9.31802 16.1431C8.47411 16.987 8 18.1316 8 19.325V31.325C8 32.5185 8.47411 33.6631 9.31802 34.507C10.1619 35.3509 11.3065 35.825 12.5 35.825H33.5C34.6935 35.825 35.8381 35.3509 36.682 34.507C37.5259 33.6631 38 32.5185 38 31.325V19.325C38.01 18.7278 37.9009 18.1346 37.6792 17.5799C37.4575 17.0253 37.1277 16.5203 36.7088 16.0945C36.2899 15.6686 35.7905 15.3304 35.2396 15.0996C34.6887 14.8688 34.0973 14.75 33.5 14.75ZM35 31.25C35 31.6479 34.842 32.0294 34.5607 32.3107C34.2794 32.592 33.8978 32.75 33.5 32.75H12.5C12.1022 32.75 11.7206 32.592 11.4393 32.3107C11.158 32.0294 11 31.6479 11 31.25V19.25C11 18.8522 11.158 18.4707 11.4393 18.1894C11.7206 17.9081 12.1022 17.75 12.5 17.75H15.5C15.8271 17.7671 16.1508 17.6766 16.4217 17.4925C16.6925 17.3083 16.8956 17.0405 17 16.73L17.81 14.27C17.9106 13.9721 18.1023 13.7133 18.3581 13.5303C18.6138 13.3473 18.9205 13.2492 19.235 13.25H26.915C27.2295 13.2492 27.5362 13.3473 27.7919 13.5303C28.0477 13.7133 28.2394 13.9721 28.34 14.27L29.15 16.73C29.2463 17.0162 29.4266 17.2666 29.6675 17.4485C29.9083 17.6305 30.1985 17.7356 30.5 17.75H33.5C33.8978 17.75 34.2794 17.9081 34.5607 18.1894C34.842 18.4707 35 18.8522 35 19.25V31.25ZM23 17.75C21.8133 17.75 20.6533 18.1019 19.6666 18.7612C18.6799 19.4205 17.9108 20.3576 17.4567 21.4539C17.0026 22.5503 16.8838 23.7567 17.1153 24.9206C17.3468 26.0845 17.9182 27.1536 18.7574 27.9927C19.5965 28.8318 20.6656 29.4032 21.8295 29.6347C22.9933 29.8663 24.1997 29.7474 25.2961 29.2933C26.3925 28.8392 27.3295 28.0701 27.9888 27.0835C28.6481 26.0968 29 24.9367 29 23.75C29 22.1587 28.3679 20.6326 27.2426 19.5074C26.1174 18.3822 24.5913 17.75 23 17.75V17.75ZM23 26.75C22.4067 26.75 21.8266 26.5741 21.3333 26.2444C20.8399 25.9148 20.4554 25.4463 20.2284 24.8981C20.0013 24.3499 19.9419 23.7467 20.0576 23.1648C20.1734 22.5828 20.4591 22.0483 20.8787 21.6287C21.2982 21.2092 21.8328 20.9234 22.4147 20.8077C22.9967 20.6919 23.5999 20.7513 24.1481 20.9784C24.6962 21.2055 25.1648 21.59 25.4944 22.0833C25.8241 22.5767 26 23.1567 26 23.75C26 24.5457 25.6839 25.3087 25.1213 25.8714C24.5587 26.434 23.7957 26.75 23 26.75Z" fill="black"/>
</g>
<defs>
<clipPath id="clip0_212_93">
<rect width="46" height="46" fill="white"/>
</clipPath>
</defs>
</svg>
