<svg width="50" height="50" viewBox="0 0 46 46" fill="none" xmlns="http://www.w3.org/2000/svg">
<g clip-path="url(#clip0_214_80)">
<rect width="46" height="46" fill="white"/>
<path d="M22.8852 44.9047C34.9192 44.9047 44.6746 35.0976 44.6746 23C44.6746 10.9023 34.9192 1.09521 22.8852 1.09521C10.8512 1.09521 1.0957 10.9023 1.0957 23C1.0957 35.0976 10.8512 44.9047 22.8852 44.9047Z" stroke="black" stroke-width="2"/>
<path d="M15.3636 9C11.8636 9 9 11.8636 9 15.3636V30.6364C9 34.1364 11.8636 37 15.3636 37H30.6364C34.1364 37 37 34.1364 37 30.6364V15.3636C37 11.8636 34.1364 9 30.6364 9H15.3636ZM15.3636 11.5455H23V23H34.4545V30.6364C34.4545 32.7592 32.7592 34.4545 30.6364 34.4545H23V23H11.5455V15.3636C11.5455 13.2408 13.2408 11.5455 15.3636 11.5455Z" fill="black"/>
</g>
<defs>
<clipPath id="clip0_214_80">
<rect width="46" height="46" fill="white"/>
</clipPath>
</defs>
</svg>
