<svg width="50" height="50" viewBox="0 0 46 46" fill="none" xmlns="http://www.w3.org/2000/svg">
<g clip-path="url(#clip0_212_96)">
<rect width="46" height="46" fill="white"/>
<path d="M22.8852 44.9047C34.9192 44.9047 44.6746 35.0976 44.6746 23C44.6746 10.9023 34.9192 1.09521 22.8852 1.09521C10.8512 1.09521 1.0957 10.9023 1.0957 23C1.0957 35.0976 10.8512 44.9047 22.8852 44.9047Z" stroke="black" stroke-width="2"/>
<path d="M16.4375 35.6875H36.1242V10.3125H9.875V35.6875H16.4375ZM31.3125 12.0625H34.3742V14.25H31.3125V12.0625ZM31.3125 16H34.3742V18.1875H31.3125V16ZM31.3125 19.9375H34.3742V22.125H31.3125V19.9375ZM31.3125 23.875H34.3742V26.0625H31.3125V23.875ZM31.3125 27.8125H34.3742V30H31.3125V27.8125ZM31.3125 31.75H34.3742V33.9375H31.3125V31.75ZM16.4375 19.9375V12.0625H29.5617V22.125H16.4375V19.9375ZM16.4375 31.75V23.875H29.5617V33.9375H16.4375V31.75ZM11.625 12.0625H14.6875V14.25H11.625V12.0625ZM11.625 16H14.6875V18.1875H11.625V16ZM11.625 19.9375H14.6875V22.125H11.625V19.9375ZM11.625 23.875H14.6875V26.0625H11.625V23.875ZM11.625 27.8125H14.6875V30H11.625V27.8125ZM11.625 31.75H14.6875V33.9375H11.625V31.75Z" fill="black"/>
</g>
<defs>
<clipPath id="clip0_212_96">
<rect width="46" height="46" fill="white"/>
</clipPath>
</defs>
</svg>
