<svg width="50" height="50" viewBox="0 0 46 46" fill="none" xmlns="http://www.w3.org/2000/svg">
<g clip-path="url(#clip0_102_2)">
<rect width="46" height="46" fill="white"/>
<path d="M22.8847 44.9048C34.9187 44.9048 44.6742 35.0977 44.6742 23C44.6742 10.9023 34.9187 1.09525 22.8847 1.09525C10.8507 1.09525 1.09521 10.9023 1.09521 23C1.09521 35.0977 10.8507 44.9048 22.8847 44.9048Z" stroke="black" stroke-width="2"/>
<g clip-path="url(#clip1_102_2)">
<path d="M24.0804 21.0157L21.5429 23.9125C22.2555 24.3169 22.8323 24.9755 23.185 25.7878L25.7225 22.8905L24.0804 21.0157ZM17.9351 25.4259C17.4151 26.0217 17.1232 26.8275 17.1232 27.6673C17.1232 28.5071 17.4151 29.3128 17.9351 29.9087C18.1921 30.2031 18.4976 30.4368 18.8342 30.5962C19.1709 30.7557 19.5319 30.8378 19.8965 30.8378C20.2611 30.8378 20.6221 30.7557 20.9587 30.5962C21.2954 30.4368 21.6009 30.2031 21.8578 29.9087C22.3779 29.3128 22.6697 28.5071 22.6697 27.6673C22.6697 26.8275 22.3779 26.0217 21.8578 25.4259C21.6007 25.132 21.295 24.8988 20.9584 24.7397C20.6218 24.5806 20.261 24.4987 19.8965 24.4987C19.532 24.4987 19.1711 24.5806 18.8346 24.7397C18.498 24.8988 18.1923 25.132 17.9351 25.4259V25.4259ZM14.5122 30.9353C14.4255 30.8418 14.3106 30.7897 14.1912 30.7897C14.0718 30.7897 13.9569 30.8418 13.8702 30.9353L13.6282 31.2117C13.5435 31.3083 13.496 31.4392 13.496 31.5757C13.496 31.7122 13.5435 31.8431 13.6282 31.9397L16.1521 34.8216C16.1942 34.8696 16.2442 34.9077 16.2992 34.9337C16.3543 34.9597 16.4133 34.9731 16.4729 34.9731C16.5325 34.9731 16.5915 34.9597 16.6466 34.9337C16.7016 34.9077 16.7516 34.8696 16.7937 34.8216L17.0361 34.5452C17.1208 34.4486 17.1684 34.3176 17.1684 34.1812C17.1684 34.0447 17.1208 33.9138 17.0361 33.8171L14.5122 30.9353Z" fill="black"/>
<path d="M27.1232 17.542L24.7203 20.2851L26.3624 22.1604L28.7658 19.4168L27.1232 17.542Z" fill="black"/>
<path d="M26.6823 23.2561L23.5104 26.8773C23.6238 27.5501 23.591 28.2442 23.415 28.8993C23.239 29.5544 22.925 30.1507 22.5004 30.6362C22.1593 31.0267 21.7537 31.3366 21.307 31.548C20.8603 31.7594 20.3812 31.8683 19.8974 31.8683C19.4136 31.8683 18.9345 31.7594 18.4878 31.548C18.0411 31.3366 17.6355 31.0267 17.2944 30.6362C16.6055 29.8468 16.2189 28.7793 16.2189 27.6668C16.2189 26.5542 16.6055 25.4867 17.2944 24.6973C17.6351 24.3061 18.0406 23.996 18.4875 23.7848C18.9344 23.5735 19.4137 23.4655 19.8976 23.467C20.1294 23.4674 20.3606 23.4924 20.5882 23.5418L23.7601 19.9205L24.7483 18.7929C22.7519 17.575 20.5592 17.7059 19.2687 19.1785C18.9842 19.5033 18.7522 19.8826 18.5836 20.299C18.3189 20.9573 17.8905 21.5129 17.3513 21.8971C16.8122 22.2813 16.1859 22.4774 15.5499 22.461C14.7726 22.3984 13.9924 22.5221 13.2597 22.8241C12.527 23.1261 11.8582 23.5996 11.2964 24.2141C8.81873 27.0475 9.38514 32.3058 12.5647 35.9363C14.207 37.9038 16.4639 39.0565 18.8473 39.1451V39.1451C19.5807 39.1699 20.311 39.0266 20.9948 38.7238C21.6786 38.4209 22.3019 37.9647 22.8275 37.3822C23.3549 36.7515 23.7633 36.0047 24.0276 35.1877C24.292 34.3708 24.4066 33.501 24.3645 32.6317C24.3506 31.9074 24.5248 31.1946 24.8652 30.5824C25.2057 29.9703 25.6973 29.4861 26.2785 29.1904C26.6672 28.9947 27.0205 28.7186 27.3207 28.3763C28.6094 26.9047 28.7254 24.4059 27.6638 22.1326L26.6805 23.2551L26.6823 23.2561ZM17.6778 35.2733L17.4358 35.5496C17.3099 35.6941 17.1601 35.8087 16.9949 35.8866C16.8297 35.9645 16.6526 36.0042 16.4738 36.0034V36.0034C16.2949 36.0043 16.1176 35.9646 15.9523 35.8867C15.787 35.8088 15.6369 35.6942 15.5109 35.5496L12.9875 32.6678C12.7341 32.3775 12.592 31.9849 12.592 31.5757C12.592 31.1665 12.7341 30.774 12.9875 30.4836L13.2295 30.2072C13.4889 29.9258 13.8336 29.7688 14.1921 29.7688C14.5506 29.7688 14.8953 29.9258 15.1548 30.2072L17.6787 33.0891C17.9326 33.3792 18.0751 33.772 18.0749 34.1814C18.0747 34.5908 17.9319 34.9834 17.6778 35.2733V35.2733Z" fill="black"/>
<path d="M27.763 16.8113L29.4051 18.6866L31.8085 15.943L31.0105 15.0319L30.1664 14.0677L27.763 16.8113Z" fill="black"/>
<path d="M37.1151 12.8374L36.5827 12.2295L36.6914 12.1047C36.8085 11.9706 36.8743 11.7892 36.8743 11.6002C36.8743 11.4111 36.8085 11.2297 36.6914 11.0956L34.4095 8.49068C34.2913 8.36133 34.1337 8.28908 33.9697 8.28908C33.8057 8.28908 33.6481 8.36133 33.5299 8.49068L33.4144 8.62268L32.8747 8.0065C32.833 7.95719 32.783 7.91784 32.7278 7.89073C32.6725 7.86362 32.6131 7.8493 32.5529 7.84861C32.4928 7.84792 32.4331 7.86087 32.3774 7.88671C32.3217 7.91255 32.271 7.95075 32.2284 7.99909C32.1858 8.04744 32.1521 8.10495 32.1292 8.16828C32.1064 8.23161 32.0948 8.29949 32.0953 8.36795C32.0957 8.43641 32.1081 8.50409 32.1318 8.56703C32.1554 8.62998 32.1899 8.68693 32.2331 8.73457L32.7769 9.35332L31.8298 10.4315L31.3699 9.90658C31.3282 9.85727 31.2782 9.81791 31.223 9.79081C31.1677 9.7637 31.1083 9.74938 31.0481 9.74869C30.9879 9.748 30.9283 9.76095 30.8726 9.78679C30.8168 9.81262 30.7662 9.85083 30.7236 9.89917C30.681 9.94752 30.6473 10.005 30.6244 10.0684C30.6015 10.1317 30.59 10.1996 30.5904 10.268C30.5909 10.3365 30.6033 10.4042 30.6269 10.4671C30.6506 10.5301 30.6851 10.587 30.7283 10.6346L31.2838 11.2689L30.368 12.8374L30.4868 12.973L31.6477 14.2987L32.8865 15.7141L34.2685 14.6622L34.8064 15.2763C34.8481 15.3256 34.8981 15.365 34.9533 15.3921C35.0086 15.4192 35.068 15.4335 35.1282 15.4342C35.1884 15.4349 35.248 15.4219 35.3038 15.3961C35.3595 15.3703 35.4101 15.3321 35.4527 15.2837C35.4953 15.2354 35.529 15.1779 35.5519 15.1145C35.5748 15.0512 35.5863 14.9833 35.5859 14.9149C35.5854 14.8464 35.573 14.7787 35.5494 14.7158C35.5257 14.6528 35.4912 14.5959 35.448 14.5482L35.0003 14.0373L35.9428 12.9611L36.4734 13.567C36.5588 13.6611 36.6732 13.7132 36.792 13.7123C36.9108 13.7113 37.0245 13.6572 37.1087 13.5618C37.1928 13.4663 37.2406 13.337 37.2418 13.2018C37.243 13.0666 37.1975 12.9363 37.1151 12.8389V12.8374Z" fill="black"/>
</g>
</g>
<defs>
<clipPath id="clip0_102_2">
<rect width="46" height="46" fill="white"/>
</clipPath>
<clipPath id="clip1_102_2">
<rect width="29" height="33" fill="white" transform="translate(9 7)"/>
</clipPath>
</defs>
</svg>
