<svg width="50" height="50" viewBox="0 0 46 46" fill="none" xmlns="http://www.w3.org/2000/svg">
<g clip-path="url(#clip0_212_88)">
<rect width="46" height="46" fill="white"/>
<path d="M22.8847 44.9047C34.9187 44.9047 44.6742 35.0976 44.6742 23C44.6742 10.9023 34.9187 1.09521 22.8847 1.09521C10.8507 1.09521 1.09521 10.9023 1.09521 23C1.09521 35.0976 10.8507 44.9047 22.8847 44.9047Z" stroke="black" stroke-width="2"/>
<path d="M33.62 21.02C27.86 17.6 18.23 17.24 12.74 18.95C11.84 19.22 10.94 18.68 10.67 17.87C10.4 16.97 10.94 16.07 11.75 15.8C18.14 13.91 28.67 14.27 35.33 18.23C36.14 18.68 36.41 19.76 35.96 20.57C35.51 21.2 34.43 21.47 33.62 21.02ZM33.44 26.06C32.99 26.69 32.18 26.96 31.55 26.51C26.69 23.54 19.31 22.64 13.64 24.44C12.92 24.62 12.11 24.26 11.93 23.54C11.75 22.82 12.11 22.01 12.83 21.83C19.4 19.85 27.5 20.84 33.08 24.26C33.62 24.53 33.89 25.43 33.44 26.06ZM31.28 31.01C30.92 31.55 30.29 31.73 29.75 31.37C25.52 28.76 20.21 28.22 13.91 29.66C13.28 29.84 12.74 29.39 12.56 28.85C12.38 28.22 12.83 27.68 13.37 27.5C20.21 25.97 26.15 26.6 30.83 29.48C31.46 29.75 31.55 30.47 31.28 31.01ZM23 5C20.6362 5 18.2956 5.46558 16.1117 6.37017C13.9278 7.27475 11.9435 8.60062 10.2721 10.2721C6.89642 13.6477 5 18.2261 5 23C5 27.7739 6.89642 32.3523 10.2721 35.7279C11.9435 37.3994 13.9278 38.7252 16.1117 39.6298C18.2956 40.5344 20.6362 41 23 41C27.7739 41 32.3523 39.1036 35.7279 35.7279C39.1036 32.3523 41 27.7739 41 23C41 20.6362 40.5344 18.2956 39.6298 16.1117C38.7252 13.9278 37.3994 11.9435 35.7279 10.2721C34.0565 8.60062 32.0722 7.27475 29.8883 6.37017C27.7044 5.46558 25.3638 5 23 5V5Z" fill="black"/>
</g>
<defs>
<clipPath id="clip0_212_88">
<rect width="46" height="46" fill="white"/>
</clipPath>
</defs>
</svg>
