<svg width="50" height="50" viewBox="0 0 46 46" fill="none" xmlns="http://www.w3.org/2000/svg">
<g clip-path="url(#clip0_212_99)">
<rect width="46" height="46" fill="white"/>
<path d="M22.8852 44.9047C34.9192 44.9047 44.6746 35.0976 44.6746 23C44.6746 10.9023 34.9192 1.09521 22.8852 1.09521C10.8512 1.09521 1.0957 10.9023 1.0957 23C1.0957 35.0976 10.8512 44.9047 22.8852 44.9047Z" stroke="black" stroke-width="2"/>
<path d="M32.1287 18.0055C33.649 18.0055 34.8815 16.7731 34.8815 15.2527C34.8815 13.7324 33.649 12.5 32.1287 12.5C30.6084 12.5 29.376 13.7324 29.376 15.2527C29.376 16.7731 30.6084 18.0055 32.1287 18.0055Z" fill="black"/>
<path d="M31.9531 25.1761C31.1735 25.799 30.6084 26.25 29.3709 26.25C28.1347 26.25 27.5999 25.8224 26.7914 25.1761C25.8564 24.4295 24.6945 23.5 22.4918 23.5C20.2904 23.5 19.1299 24.4295 18.1962 25.1761C17.3877 25.8224 16.8556 26.25 15.6181 26.25C14.3834 26.25 13.8499 25.8224 13.0428 25.1775C12.1091 24.4295 10.95 23.5 8.75 23.5V26.25C9.98338 26.25 10.5169 26.6776 11.324 27.3225C12.2576 28.0705 13.4181 29 15.6181 29C17.8181 29 18.9814 28.0705 19.915 27.3225C20.7221 26.6762 21.257 26.25 22.4918 26.25C23.7293 26.25 24.2944 26.701 25.074 27.3239C26.0076 28.0705 27.1695 29 29.3709 29C31.5736 29 32.7355 28.0705 33.6705 27.3239C34.479 26.6776 35.0139 26.25 36.25 26.25V23.5C34.0486 23.5 32.8868 24.4295 31.9531 25.1761ZM29.3709 33.125C28.1347 33.125 27.5999 32.6974 26.7914 32.0511C25.8564 31.3045 24.6945 30.375 22.4918 30.375C20.2904 30.375 19.1299 31.3045 18.1962 32.0511C17.3877 32.6974 16.8556 33.125 15.6181 33.125C14.3834 33.125 13.8499 32.6974 13.0428 32.0525C12.1091 31.3045 10.95 30.375 8.75 30.375V33.125C9.98338 33.125 10.5169 33.5526 11.324 34.1975C12.2576 34.9455 13.4181 35.875 15.6181 35.875C17.8181 35.875 18.9814 34.9455 19.915 34.1975C20.7221 33.5512 21.257 33.125 22.4918 33.125C23.7293 33.125 24.2944 33.576 25.074 34.1989C26.0076 34.9455 27.1695 35.875 29.3709 35.875C31.5736 35.875 32.7355 34.9455 33.6705 34.1989C34.479 33.5526 35.0139 33.125 36.25 33.125V30.375C34.0486 30.375 32.8868 31.3045 31.9531 32.0511C31.1735 32.674 30.6084 33.125 29.3709 33.125ZM21.125 14.4511L24.018 17.3441L21.1896 20.8779C21.5829 20.8009 22.0091 20.75 22.4918 20.75C24.6945 20.75 25.8564 21.6795 26.7914 22.4261C27.5999 23.0724 28.1347 23.5 29.3709 23.5C30.6084 23.5 31.1735 23.049 31.9531 22.4261C32.1346 22.2817 32.3299 22.1277 32.5348 21.9779L29.6527 19.1041L29.6596 19.0972L22.0971 11.5347C21.9695 11.4069 21.818 11.3056 21.6512 11.2364C21.4844 11.1672 21.3056 11.1316 21.125 11.1316C20.9444 11.1316 20.7656 11.1672 20.5988 11.2364C20.432 11.3056 20.2805 11.4069 20.1529 11.5347L14.6529 17.0347L16.5971 18.979L21.125 14.4511Z" fill="black"/>
</g>
<defs>
<clipPath id="clip0_212_99">
<rect width="46" height="46" fill="white"/>
</clipPath>
</defs>
</svg>
